%TF.GenerationSoftware,KiCad,Pcbnew,(6.0.10)*%
%TF.CreationDate,2023-01-16T00:42:17+03:00*%
%TF.ProjectId,stylo,7374796c-6f2e-46b6-9963-61645f706362,rev?*%
%TF.SameCoordinates,Original*%
%TF.FileFunction,Legend,Top*%
%TF.FilePolarity,Positive*%
%FSLAX46Y46*%
G04 Gerber Fmt 4.6, Leading zero omitted, Abs format (unit mm)*
G04 Created by KiCad (PCBNEW (6.0.10)) date 2023-01-16 00:42:17*
%MOMM*%
%LPD*%
G01*
G04 APERTURE LIST*
%ADD10C,0.150000*%
%ADD11C,0.120000*%
G04 APERTURE END LIST*
D10*
%TO.C,TP6*%
X127009154Y-116952380D02*
X127580582Y-116952380D01*
X127294868Y-117952380D02*
X127294868Y-116952380D01*
X127913916Y-117952380D02*
X127913916Y-116952380D01*
X128294868Y-116952380D01*
X128390106Y-117000000D01*
X128437725Y-117047619D01*
X128485344Y-117142857D01*
X128485344Y-117285714D01*
X128437725Y-117380952D01*
X128390106Y-117428571D01*
X128294868Y-117476190D01*
X127913916Y-117476190D01*
X129342487Y-116952380D02*
X129152011Y-116952380D01*
X129056773Y-117000000D01*
X129009154Y-117047619D01*
X128913916Y-117190476D01*
X128866297Y-117380952D01*
X128866297Y-117761904D01*
X128913916Y-117857142D01*
X128961535Y-117904761D01*
X129056773Y-117952380D01*
X129247249Y-117952380D01*
X129342487Y-117904761D01*
X129390106Y-117857142D01*
X129437725Y-117761904D01*
X129437725Y-117523809D01*
X129390106Y-117428571D01*
X129342487Y-117380952D01*
X129247249Y-117333333D01*
X129056773Y-117333333D01*
X128961535Y-117380952D01*
X128913916Y-117428571D01*
X128866297Y-117523809D01*
%TO.C,TP1*%
X94988095Y-109452380D02*
X95559523Y-109452380D01*
X95273809Y-110452380D02*
X95273809Y-109452380D01*
X95892857Y-110452380D02*
X95892857Y-109452380D01*
X96273809Y-109452380D01*
X96369047Y-109500000D01*
X96416666Y-109547619D01*
X96464285Y-109642857D01*
X96464285Y-109785714D01*
X96416666Y-109880952D01*
X96369047Y-109928571D01*
X96273809Y-109976190D01*
X95892857Y-109976190D01*
X97416666Y-110452380D02*
X96845238Y-110452380D01*
X97130952Y-110452380D02*
X97130952Y-109452380D01*
X97035714Y-109595238D01*
X96940476Y-109690476D01*
X96845238Y-109738095D01*
%TO.C,TP3*%
X105738095Y-109452380D02*
X106309523Y-109452380D01*
X106023809Y-110452380D02*
X106023809Y-109452380D01*
X106642857Y-110452380D02*
X106642857Y-109452380D01*
X107023809Y-109452380D01*
X107119047Y-109500000D01*
X107166666Y-109547619D01*
X107214285Y-109642857D01*
X107214285Y-109785714D01*
X107166666Y-109880952D01*
X107119047Y-109928571D01*
X107023809Y-109976190D01*
X106642857Y-109976190D01*
X107547619Y-109452380D02*
X108166666Y-109452380D01*
X107833333Y-109833333D01*
X107976190Y-109833333D01*
X108071428Y-109880952D01*
X108119047Y-109928571D01*
X108166666Y-110023809D01*
X108166666Y-110261904D01*
X108119047Y-110357142D01*
X108071428Y-110404761D01*
X107976190Y-110452380D01*
X107690476Y-110452380D01*
X107595238Y-110404761D01*
X107547619Y-110357142D01*
%TO.C,TP4*%
X116488095Y-109452380D02*
X117059523Y-109452380D01*
X116773809Y-110452380D02*
X116773809Y-109452380D01*
X117392857Y-110452380D02*
X117392857Y-109452380D01*
X117773809Y-109452380D01*
X117869047Y-109500000D01*
X117916666Y-109547619D01*
X117964285Y-109642857D01*
X117964285Y-109785714D01*
X117916666Y-109880952D01*
X117869047Y-109928571D01*
X117773809Y-109976190D01*
X117392857Y-109976190D01*
X118821428Y-109785714D02*
X118821428Y-110452380D01*
X118583333Y-109404761D02*
X118345238Y-110119047D01*
X118964285Y-110119047D01*
%TO.C,TP7*%
X132238095Y-105702380D02*
X132809523Y-105702380D01*
X132523809Y-106702380D02*
X132523809Y-105702380D01*
X133142857Y-106702380D02*
X133142857Y-105702380D01*
X133523809Y-105702380D01*
X133619047Y-105750000D01*
X133666666Y-105797619D01*
X133714285Y-105892857D01*
X133714285Y-106035714D01*
X133666666Y-106130952D01*
X133619047Y-106178571D01*
X133523809Y-106226190D01*
X133142857Y-106226190D01*
X134047619Y-105702380D02*
X134714285Y-105702380D01*
X134285714Y-106702380D01*
%TO.C,TP18*%
X199511904Y-116952380D02*
X200083333Y-116952380D01*
X199797619Y-117952380D02*
X199797619Y-116952380D01*
X200416666Y-117952380D02*
X200416666Y-116952380D01*
X200797619Y-116952380D01*
X200892857Y-117000000D01*
X200940476Y-117047619D01*
X200988095Y-117142857D01*
X200988095Y-117285714D01*
X200940476Y-117380952D01*
X200892857Y-117428571D01*
X200797619Y-117476190D01*
X200416666Y-117476190D01*
X201940476Y-117952380D02*
X201369047Y-117952380D01*
X201654761Y-117952380D02*
X201654761Y-116952380D01*
X201559523Y-117095238D01*
X201464285Y-117190476D01*
X201369047Y-117238095D01*
X202511904Y-117380952D02*
X202416666Y-117333333D01*
X202369047Y-117285714D01*
X202321428Y-117190476D01*
X202321428Y-117142857D01*
X202369047Y-117047619D01*
X202416666Y-117000000D01*
X202511904Y-116952380D01*
X202702380Y-116952380D01*
X202797619Y-117000000D01*
X202845238Y-117047619D01*
X202892857Y-117142857D01*
X202892857Y-117190476D01*
X202845238Y-117285714D01*
X202797619Y-117333333D01*
X202702380Y-117380952D01*
X202511904Y-117380952D01*
X202416666Y-117428571D01*
X202369047Y-117476190D01*
X202321428Y-117571428D01*
X202321428Y-117761904D01*
X202369047Y-117857142D01*
X202416666Y-117904761D01*
X202511904Y-117952380D01*
X202702380Y-117952380D01*
X202797619Y-117904761D01*
X202845238Y-117857142D01*
X202892857Y-117761904D01*
X202892857Y-117571428D01*
X202845238Y-117476190D01*
X202797619Y-117428571D01*
X202702380Y-117380952D01*
%TO.C,TP13*%
X168011904Y-116952380D02*
X168583333Y-116952380D01*
X168297619Y-117952380D02*
X168297619Y-116952380D01*
X168916666Y-117952380D02*
X168916666Y-116952380D01*
X169297619Y-116952380D01*
X169392857Y-117000000D01*
X169440476Y-117047619D01*
X169488095Y-117142857D01*
X169488095Y-117285714D01*
X169440476Y-117380952D01*
X169392857Y-117428571D01*
X169297619Y-117476190D01*
X168916666Y-117476190D01*
X170440476Y-117952380D02*
X169869047Y-117952380D01*
X170154761Y-117952380D02*
X170154761Y-116952380D01*
X170059523Y-117095238D01*
X169964285Y-117190476D01*
X169869047Y-117238095D01*
X170773809Y-116952380D02*
X171392857Y-116952380D01*
X171059523Y-117333333D01*
X171202380Y-117333333D01*
X171297619Y-117380952D01*
X171345238Y-117428571D01*
X171392857Y-117523809D01*
X171392857Y-117761904D01*
X171345238Y-117857142D01*
X171297619Y-117904761D01*
X171202380Y-117952380D01*
X170916666Y-117952380D01*
X170821428Y-117904761D01*
X170773809Y-117857142D01*
%TO.C,TP11*%
X157959368Y-116948800D02*
X158530797Y-116948800D01*
X158245083Y-117948800D02*
X158245083Y-116948800D01*
X158864130Y-117948800D02*
X158864130Y-116948800D01*
X159245083Y-116948800D01*
X159340321Y-116996420D01*
X159387940Y-117044039D01*
X159435559Y-117139277D01*
X159435559Y-117282134D01*
X159387940Y-117377372D01*
X159340321Y-117424991D01*
X159245083Y-117472610D01*
X158864130Y-117472610D01*
X160387940Y-117948800D02*
X159816511Y-117948800D01*
X160102225Y-117948800D02*
X160102225Y-116948800D01*
X160006987Y-117091658D01*
X159911749Y-117186896D01*
X159816511Y-117234515D01*
X161340321Y-117948800D02*
X160768892Y-117948800D01*
X161054606Y-117948800D02*
X161054606Y-116948800D01*
X160959368Y-117091658D01*
X160864130Y-117186896D01*
X160768892Y-117234515D01*
%TO.C,TP20*%
X209761904Y-109452380D02*
X210333333Y-109452380D01*
X210047619Y-110452380D02*
X210047619Y-109452380D01*
X210666666Y-110452380D02*
X210666666Y-109452380D01*
X211047619Y-109452380D01*
X211142857Y-109500000D01*
X211190476Y-109547619D01*
X211238095Y-109642857D01*
X211238095Y-109785714D01*
X211190476Y-109880952D01*
X211142857Y-109928571D01*
X211047619Y-109976190D01*
X210666666Y-109976190D01*
X211619047Y-109547619D02*
X211666666Y-109500000D01*
X211761904Y-109452380D01*
X212000000Y-109452380D01*
X212095238Y-109500000D01*
X212142857Y-109547619D01*
X212190476Y-109642857D01*
X212190476Y-109738095D01*
X212142857Y-109880952D01*
X211571428Y-110452380D01*
X212190476Y-110452380D01*
X212809523Y-109452380D02*
X212904761Y-109452380D01*
X213000000Y-109500000D01*
X213047619Y-109547619D01*
X213095238Y-109642857D01*
X213142857Y-109833333D01*
X213142857Y-110071428D01*
X213095238Y-110261904D01*
X213047619Y-110357142D01*
X213000000Y-110404761D01*
X212904761Y-110452380D01*
X212809523Y-110452380D01*
X212714285Y-110404761D01*
X212666666Y-110357142D01*
X212619047Y-110261904D01*
X212571428Y-110071428D01*
X212571428Y-109833333D01*
X212619047Y-109642857D01*
X212666666Y-109547619D01*
X212714285Y-109500000D01*
X212809523Y-109452380D01*
%TO.C,TP15*%
X178261904Y-109452380D02*
X178833333Y-109452380D01*
X178547619Y-110452380D02*
X178547619Y-109452380D01*
X179166666Y-110452380D02*
X179166666Y-109452380D01*
X179547619Y-109452380D01*
X179642857Y-109500000D01*
X179690476Y-109547619D01*
X179738095Y-109642857D01*
X179738095Y-109785714D01*
X179690476Y-109880952D01*
X179642857Y-109928571D01*
X179547619Y-109976190D01*
X179166666Y-109976190D01*
X180690476Y-110452380D02*
X180119047Y-110452380D01*
X180404761Y-110452380D02*
X180404761Y-109452380D01*
X180309523Y-109595238D01*
X180214285Y-109690476D01*
X180119047Y-109738095D01*
X181595238Y-109452380D02*
X181119047Y-109452380D01*
X181071428Y-109928571D01*
X181119047Y-109880952D01*
X181214285Y-109833333D01*
X181452380Y-109833333D01*
X181547619Y-109880952D01*
X181595238Y-109928571D01*
X181642857Y-110023809D01*
X181642857Y-110261904D01*
X181595238Y-110357142D01*
X181547619Y-110404761D01*
X181452380Y-110452380D01*
X181214285Y-110452380D01*
X181119047Y-110404761D01*
X181071428Y-110357142D01*
%TO.C,TP8*%
X137238095Y-109452380D02*
X137809523Y-109452380D01*
X137523809Y-110452380D02*
X137523809Y-109452380D01*
X138142857Y-110452380D02*
X138142857Y-109452380D01*
X138523809Y-109452380D01*
X138619047Y-109500000D01*
X138666666Y-109547619D01*
X138714285Y-109642857D01*
X138714285Y-109785714D01*
X138666666Y-109880952D01*
X138619047Y-109928571D01*
X138523809Y-109976190D01*
X138142857Y-109976190D01*
X139285714Y-109880952D02*
X139190476Y-109833333D01*
X139142857Y-109785714D01*
X139095238Y-109690476D01*
X139095238Y-109642857D01*
X139142857Y-109547619D01*
X139190476Y-109500000D01*
X139285714Y-109452380D01*
X139476190Y-109452380D01*
X139571428Y-109500000D01*
X139619047Y-109547619D01*
X139666666Y-109642857D01*
X139666666Y-109690476D01*
X139619047Y-109785714D01*
X139571428Y-109833333D01*
X139476190Y-109880952D01*
X139285714Y-109880952D01*
X139190476Y-109928571D01*
X139142857Y-109976190D01*
X139095238Y-110071428D01*
X139095238Y-110261904D01*
X139142857Y-110357142D01*
X139190476Y-110404761D01*
X139285714Y-110452380D01*
X139476190Y-110452380D01*
X139571428Y-110404761D01*
X139619047Y-110357142D01*
X139666666Y-110261904D01*
X139666666Y-110071428D01*
X139619047Y-109976190D01*
X139571428Y-109928571D01*
X139476190Y-109880952D01*
%TO.C,TP19*%
X204761904Y-105702380D02*
X205333333Y-105702380D01*
X205047619Y-106702380D02*
X205047619Y-105702380D01*
X205666666Y-106702380D02*
X205666666Y-105702380D01*
X206047619Y-105702380D01*
X206142857Y-105750000D01*
X206190476Y-105797619D01*
X206238095Y-105892857D01*
X206238095Y-106035714D01*
X206190476Y-106130952D01*
X206142857Y-106178571D01*
X206047619Y-106226190D01*
X205666666Y-106226190D01*
X207190476Y-106702380D02*
X206619047Y-106702380D01*
X206904761Y-106702380D02*
X206904761Y-105702380D01*
X206809523Y-105845238D01*
X206714285Y-105940476D01*
X206619047Y-105988095D01*
X207666666Y-106702380D02*
X207857142Y-106702380D01*
X207952380Y-106654761D01*
X208000000Y-106607142D01*
X208095238Y-106464285D01*
X208142857Y-106273809D01*
X208142857Y-105892857D01*
X208095238Y-105797619D01*
X208047619Y-105750000D01*
X207952380Y-105702380D01*
X207761904Y-105702380D01*
X207666666Y-105750000D01*
X207619047Y-105797619D01*
X207571428Y-105892857D01*
X207571428Y-106130952D01*
X207619047Y-106226190D01*
X207666666Y-106273809D01*
X207761904Y-106321428D01*
X207952380Y-106321428D01*
X208047619Y-106273809D01*
X208095238Y-106226190D01*
X208142857Y-106130952D01*
%TO.C,TP17*%
X194761904Y-105702380D02*
X195333333Y-105702380D01*
X195047619Y-106702380D02*
X195047619Y-105702380D01*
X195666666Y-106702380D02*
X195666666Y-105702380D01*
X196047619Y-105702380D01*
X196142857Y-105750000D01*
X196190476Y-105797619D01*
X196238095Y-105892857D01*
X196238095Y-106035714D01*
X196190476Y-106130952D01*
X196142857Y-106178571D01*
X196047619Y-106226190D01*
X195666666Y-106226190D01*
X197190476Y-106702380D02*
X196619047Y-106702380D01*
X196904761Y-106702380D02*
X196904761Y-105702380D01*
X196809523Y-105845238D01*
X196714285Y-105940476D01*
X196619047Y-105988095D01*
X197523809Y-105702380D02*
X198190476Y-105702380D01*
X197761904Y-106702380D01*
%TO.C,TP14*%
X173261904Y-105702380D02*
X173833333Y-105702380D01*
X173547619Y-106702380D02*
X173547619Y-105702380D01*
X174166666Y-106702380D02*
X174166666Y-105702380D01*
X174547619Y-105702380D01*
X174642857Y-105750000D01*
X174690476Y-105797619D01*
X174738095Y-105892857D01*
X174738095Y-106035714D01*
X174690476Y-106130952D01*
X174642857Y-106178571D01*
X174547619Y-106226190D01*
X174166666Y-106226190D01*
X175690476Y-106702380D02*
X175119047Y-106702380D01*
X175404761Y-106702380D02*
X175404761Y-105702380D01*
X175309523Y-105845238D01*
X175214285Y-105940476D01*
X175119047Y-105988095D01*
X176547619Y-106035714D02*
X176547619Y-106702380D01*
X176309523Y-105654761D02*
X176071428Y-106369047D01*
X176690476Y-106369047D01*
%TO.C,TP12*%
X163261904Y-105702380D02*
X163833333Y-105702380D01*
X163547619Y-106702380D02*
X163547619Y-105702380D01*
X164166666Y-106702380D02*
X164166666Y-105702380D01*
X164547619Y-105702380D01*
X164642857Y-105750000D01*
X164690476Y-105797619D01*
X164738095Y-105892857D01*
X164738095Y-106035714D01*
X164690476Y-106130952D01*
X164642857Y-106178571D01*
X164547619Y-106226190D01*
X164166666Y-106226190D01*
X165690476Y-106702380D02*
X165119047Y-106702380D01*
X165404761Y-106702380D02*
X165404761Y-105702380D01*
X165309523Y-105845238D01*
X165214285Y-105940476D01*
X165119047Y-105988095D01*
X166071428Y-105797619D02*
X166119047Y-105750000D01*
X166214285Y-105702380D01*
X166452380Y-105702380D01*
X166547619Y-105750000D01*
X166595238Y-105797619D01*
X166642857Y-105892857D01*
X166642857Y-105988095D01*
X166595238Y-106130952D01*
X166023809Y-106702380D01*
X166642857Y-106702380D01*
%TO.C,TP10*%
X153261904Y-105702380D02*
X153833333Y-105702380D01*
X153547619Y-106702380D02*
X153547619Y-105702380D01*
X154166666Y-106702380D02*
X154166666Y-105702380D01*
X154547619Y-105702380D01*
X154642857Y-105750000D01*
X154690476Y-105797619D01*
X154738095Y-105892857D01*
X154738095Y-106035714D01*
X154690476Y-106130952D01*
X154642857Y-106178571D01*
X154547619Y-106226190D01*
X154166666Y-106226190D01*
X155690476Y-106702380D02*
X155119047Y-106702380D01*
X155404761Y-106702380D02*
X155404761Y-105702380D01*
X155309523Y-105845238D01*
X155214285Y-105940476D01*
X155119047Y-105988095D01*
X156309523Y-105702380D02*
X156404761Y-105702380D01*
X156500000Y-105750000D01*
X156547619Y-105797619D01*
X156595238Y-105892857D01*
X156642857Y-106083333D01*
X156642857Y-106321428D01*
X156595238Y-106511904D01*
X156547619Y-106607142D01*
X156500000Y-106654761D01*
X156404761Y-106702380D01*
X156309523Y-106702380D01*
X156214285Y-106654761D01*
X156166666Y-106607142D01*
X156119047Y-106511904D01*
X156071428Y-106321428D01*
X156071428Y-106083333D01*
X156119047Y-105892857D01*
X156166666Y-105797619D01*
X156214285Y-105750000D01*
X156309523Y-105702380D01*
%TO.C,TP5*%
X122238095Y-105702380D02*
X122809523Y-105702380D01*
X122523809Y-106702380D02*
X122523809Y-105702380D01*
X123142857Y-106702380D02*
X123142857Y-105702380D01*
X123523809Y-105702380D01*
X123619047Y-105750000D01*
X123666666Y-105797619D01*
X123714285Y-105892857D01*
X123714285Y-106035714D01*
X123666666Y-106130952D01*
X123619047Y-106178571D01*
X123523809Y-106226190D01*
X123142857Y-106226190D01*
X124619047Y-105702380D02*
X124142857Y-105702380D01*
X124095238Y-106178571D01*
X124142857Y-106130952D01*
X124238095Y-106083333D01*
X124476190Y-106083333D01*
X124571428Y-106130952D01*
X124619047Y-106178571D01*
X124666666Y-106273809D01*
X124666666Y-106511904D01*
X124619047Y-106607142D01*
X124571428Y-106654761D01*
X124476190Y-106702380D01*
X124238095Y-106702380D01*
X124142857Y-106654761D01*
X124095238Y-106607142D01*
%TO.C,TP2*%
X100738095Y-105702380D02*
X101309523Y-105702380D01*
X101023809Y-106702380D02*
X101023809Y-105702380D01*
X101642857Y-106702380D02*
X101642857Y-105702380D01*
X102023809Y-105702380D01*
X102119047Y-105750000D01*
X102166666Y-105797619D01*
X102214285Y-105892857D01*
X102214285Y-106035714D01*
X102166666Y-106130952D01*
X102119047Y-106178571D01*
X102023809Y-106226190D01*
X101642857Y-106226190D01*
X102595238Y-105797619D02*
X102642857Y-105750000D01*
X102738095Y-105702380D01*
X102976190Y-105702380D01*
X103071428Y-105750000D01*
X103119047Y-105797619D01*
X103166666Y-105892857D01*
X103166666Y-105988095D01*
X103119047Y-106130952D01*
X102547619Y-106702380D01*
X103166666Y-106702380D01*
%TO.C,TP16*%
X189011904Y-109452380D02*
X189583333Y-109452380D01*
X189297619Y-110452380D02*
X189297619Y-109452380D01*
X189916666Y-110452380D02*
X189916666Y-109452380D01*
X190297619Y-109452380D01*
X190392857Y-109500000D01*
X190440476Y-109547619D01*
X190488095Y-109642857D01*
X190488095Y-109785714D01*
X190440476Y-109880952D01*
X190392857Y-109928571D01*
X190297619Y-109976190D01*
X189916666Y-109976190D01*
X191440476Y-110452380D02*
X190869047Y-110452380D01*
X191154761Y-110452380D02*
X191154761Y-109452380D01*
X191059523Y-109595238D01*
X190964285Y-109690476D01*
X190869047Y-109738095D01*
X192297619Y-109452380D02*
X192107142Y-109452380D01*
X192011904Y-109500000D01*
X191964285Y-109547619D01*
X191869047Y-109690476D01*
X191821428Y-109880952D01*
X191821428Y-110261904D01*
X191869047Y-110357142D01*
X191916666Y-110404761D01*
X192011904Y-110452380D01*
X192202380Y-110452380D01*
X192297619Y-110404761D01*
X192345238Y-110357142D01*
X192392857Y-110261904D01*
X192392857Y-110023809D01*
X192345238Y-109928571D01*
X192297619Y-109880952D01*
X192202380Y-109833333D01*
X192011904Y-109833333D01*
X191916666Y-109880952D01*
X191869047Y-109928571D01*
X191821428Y-110023809D01*
%TO.C,TP9*%
X147988095Y-109452380D02*
X148559523Y-109452380D01*
X148273809Y-110452380D02*
X148273809Y-109452380D01*
X148892857Y-110452380D02*
X148892857Y-109452380D01*
X149273809Y-109452380D01*
X149369047Y-109500000D01*
X149416666Y-109547619D01*
X149464285Y-109642857D01*
X149464285Y-109785714D01*
X149416666Y-109880952D01*
X149369047Y-109928571D01*
X149273809Y-109976190D01*
X148892857Y-109976190D01*
X149940476Y-110452380D02*
X150130952Y-110452380D01*
X150226190Y-110404761D01*
X150273809Y-110357142D01*
X150369047Y-110214285D01*
X150416666Y-110023809D01*
X150416666Y-109642857D01*
X150369047Y-109547619D01*
X150321428Y-109500000D01*
X150226190Y-109452380D01*
X150035714Y-109452380D01*
X149940476Y-109500000D01*
X149892857Y-109547619D01*
X149845238Y-109642857D01*
X149845238Y-109880952D01*
X149892857Y-109976190D01*
X149940476Y-110023809D01*
X150035714Y-110071428D01*
X150226190Y-110071428D01*
X150321428Y-110023809D01*
X150369047Y-109976190D01*
X150416666Y-109880952D01*
%TO.C,TP21*%
X91261904Y-86257380D02*
X91833333Y-86257380D01*
X91547619Y-87257380D02*
X91547619Y-86257380D01*
X92166666Y-87257380D02*
X92166666Y-86257380D01*
X92547619Y-86257380D01*
X92642857Y-86305000D01*
X92690476Y-86352619D01*
X92738095Y-86447857D01*
X92738095Y-86590714D01*
X92690476Y-86685952D01*
X92642857Y-86733571D01*
X92547619Y-86781190D01*
X92166666Y-86781190D01*
X93119047Y-86352619D02*
X93166666Y-86305000D01*
X93261904Y-86257380D01*
X93500000Y-86257380D01*
X93595238Y-86305000D01*
X93642857Y-86352619D01*
X93690476Y-86447857D01*
X93690476Y-86543095D01*
X93642857Y-86685952D01*
X93071428Y-87257380D01*
X93690476Y-87257380D01*
X94642857Y-87257380D02*
X94071428Y-87257380D01*
X94357142Y-87257380D02*
X94357142Y-86257380D01*
X94261904Y-86400238D01*
X94166666Y-86495476D01*
X94071428Y-86543095D01*
%TO.C,R20*%
X186172380Y-80067857D02*
X185696190Y-80401190D01*
X186172380Y-80639285D02*
X185172380Y-80639285D01*
X185172380Y-80258333D01*
X185220000Y-80163095D01*
X185267619Y-80115476D01*
X185362857Y-80067857D01*
X185505714Y-80067857D01*
X185600952Y-80115476D01*
X185648571Y-80163095D01*
X185696190Y-80258333D01*
X185696190Y-80639285D01*
X185267619Y-79686904D02*
X185220000Y-79639285D01*
X185172380Y-79544047D01*
X185172380Y-79305952D01*
X185220000Y-79210714D01*
X185267619Y-79163095D01*
X185362857Y-79115476D01*
X185458095Y-79115476D01*
X185600952Y-79163095D01*
X186172380Y-79734523D01*
X186172380Y-79115476D01*
X185172380Y-78496428D02*
X185172380Y-78401190D01*
X185220000Y-78305952D01*
X185267619Y-78258333D01*
X185362857Y-78210714D01*
X185553333Y-78163095D01*
X185791428Y-78163095D01*
X185981904Y-78210714D01*
X186077142Y-78258333D01*
X186124761Y-78305952D01*
X186172380Y-78401190D01*
X186172380Y-78496428D01*
X186124761Y-78591666D01*
X186077142Y-78639285D01*
X185981904Y-78686904D01*
X185791428Y-78734523D01*
X185553333Y-78734523D01*
X185362857Y-78686904D01*
X185267619Y-78639285D01*
X185220000Y-78591666D01*
X185172380Y-78496428D01*
%TO.C,R19*%
X182172380Y-80067857D02*
X181696190Y-80401190D01*
X182172380Y-80639285D02*
X181172380Y-80639285D01*
X181172380Y-80258333D01*
X181220000Y-80163095D01*
X181267619Y-80115476D01*
X181362857Y-80067857D01*
X181505714Y-80067857D01*
X181600952Y-80115476D01*
X181648571Y-80163095D01*
X181696190Y-80258333D01*
X181696190Y-80639285D01*
X182172380Y-79115476D02*
X182172380Y-79686904D01*
X182172380Y-79401190D02*
X181172380Y-79401190D01*
X181315238Y-79496428D01*
X181410476Y-79591666D01*
X181458095Y-79686904D01*
X182172380Y-78639285D02*
X182172380Y-78448809D01*
X182124761Y-78353571D01*
X182077142Y-78305952D01*
X181934285Y-78210714D01*
X181743809Y-78163095D01*
X181362857Y-78163095D01*
X181267619Y-78210714D01*
X181220000Y-78258333D01*
X181172380Y-78353571D01*
X181172380Y-78544047D01*
X181220000Y-78639285D01*
X181267619Y-78686904D01*
X181362857Y-78734523D01*
X181600952Y-78734523D01*
X181696190Y-78686904D01*
X181743809Y-78639285D01*
X181791428Y-78544047D01*
X181791428Y-78353571D01*
X181743809Y-78258333D01*
X181696190Y-78210714D01*
X181600952Y-78163095D01*
%TO.C,R18*%
X178172380Y-80067857D02*
X177696190Y-80401190D01*
X178172380Y-80639285D02*
X177172380Y-80639285D01*
X177172380Y-80258333D01*
X177220000Y-80163095D01*
X177267619Y-80115476D01*
X177362857Y-80067857D01*
X177505714Y-80067857D01*
X177600952Y-80115476D01*
X177648571Y-80163095D01*
X177696190Y-80258333D01*
X177696190Y-80639285D01*
X178172380Y-79115476D02*
X178172380Y-79686904D01*
X178172380Y-79401190D02*
X177172380Y-79401190D01*
X177315238Y-79496428D01*
X177410476Y-79591666D01*
X177458095Y-79686904D01*
X177600952Y-78544047D02*
X177553333Y-78639285D01*
X177505714Y-78686904D01*
X177410476Y-78734523D01*
X177362857Y-78734523D01*
X177267619Y-78686904D01*
X177220000Y-78639285D01*
X177172380Y-78544047D01*
X177172380Y-78353571D01*
X177220000Y-78258333D01*
X177267619Y-78210714D01*
X177362857Y-78163095D01*
X177410476Y-78163095D01*
X177505714Y-78210714D01*
X177553333Y-78258333D01*
X177600952Y-78353571D01*
X177600952Y-78544047D01*
X177648571Y-78639285D01*
X177696190Y-78686904D01*
X177791428Y-78734523D01*
X177981904Y-78734523D01*
X178077142Y-78686904D01*
X178124761Y-78639285D01*
X178172380Y-78544047D01*
X178172380Y-78353571D01*
X178124761Y-78258333D01*
X178077142Y-78210714D01*
X177981904Y-78163095D01*
X177791428Y-78163095D01*
X177696190Y-78210714D01*
X177648571Y-78258333D01*
X177600952Y-78353571D01*
%TO.C,R17*%
X174172380Y-80067857D02*
X173696190Y-80401190D01*
X174172380Y-80639285D02*
X173172380Y-80639285D01*
X173172380Y-80258333D01*
X173220000Y-80163095D01*
X173267619Y-80115476D01*
X173362857Y-80067857D01*
X173505714Y-80067857D01*
X173600952Y-80115476D01*
X173648571Y-80163095D01*
X173696190Y-80258333D01*
X173696190Y-80639285D01*
X174172380Y-79115476D02*
X174172380Y-79686904D01*
X174172380Y-79401190D02*
X173172380Y-79401190D01*
X173315238Y-79496428D01*
X173410476Y-79591666D01*
X173458095Y-79686904D01*
X173172380Y-78782142D02*
X173172380Y-78115476D01*
X174172380Y-78544047D01*
%TO.C,R16*%
X170172380Y-80067857D02*
X169696190Y-80401190D01*
X170172380Y-80639285D02*
X169172380Y-80639285D01*
X169172380Y-80258333D01*
X169220000Y-80163095D01*
X169267619Y-80115476D01*
X169362857Y-80067857D01*
X169505714Y-80067857D01*
X169600952Y-80115476D01*
X169648571Y-80163095D01*
X169696190Y-80258333D01*
X169696190Y-80639285D01*
X170172380Y-79115476D02*
X170172380Y-79686904D01*
X170172380Y-79401190D02*
X169172380Y-79401190D01*
X169315238Y-79496428D01*
X169410476Y-79591666D01*
X169458095Y-79686904D01*
X169172380Y-78258333D02*
X169172380Y-78448809D01*
X169220000Y-78544047D01*
X169267619Y-78591666D01*
X169410476Y-78686904D01*
X169600952Y-78734523D01*
X169981904Y-78734523D01*
X170077142Y-78686904D01*
X170124761Y-78639285D01*
X170172380Y-78544047D01*
X170172380Y-78353571D01*
X170124761Y-78258333D01*
X170077142Y-78210714D01*
X169981904Y-78163095D01*
X169743809Y-78163095D01*
X169648571Y-78210714D01*
X169600952Y-78258333D01*
X169553333Y-78353571D01*
X169553333Y-78544047D01*
X169600952Y-78639285D01*
X169648571Y-78686904D01*
X169743809Y-78734523D01*
%TO.C,R15*%
X166172380Y-80067857D02*
X165696190Y-80401190D01*
X166172380Y-80639285D02*
X165172380Y-80639285D01*
X165172380Y-80258333D01*
X165220000Y-80163095D01*
X165267619Y-80115476D01*
X165362857Y-80067857D01*
X165505714Y-80067857D01*
X165600952Y-80115476D01*
X165648571Y-80163095D01*
X165696190Y-80258333D01*
X165696190Y-80639285D01*
X166172380Y-79115476D02*
X166172380Y-79686904D01*
X166172380Y-79401190D02*
X165172380Y-79401190D01*
X165315238Y-79496428D01*
X165410476Y-79591666D01*
X165458095Y-79686904D01*
X165172380Y-78210714D02*
X165172380Y-78686904D01*
X165648571Y-78734523D01*
X165600952Y-78686904D01*
X165553333Y-78591666D01*
X165553333Y-78353571D01*
X165600952Y-78258333D01*
X165648571Y-78210714D01*
X165743809Y-78163095D01*
X165981904Y-78163095D01*
X166077142Y-78210714D01*
X166124761Y-78258333D01*
X166172380Y-78353571D01*
X166172380Y-78591666D01*
X166124761Y-78686904D01*
X166077142Y-78734523D01*
%TO.C,R14*%
X162172380Y-80067857D02*
X161696190Y-80401190D01*
X162172380Y-80639285D02*
X161172380Y-80639285D01*
X161172380Y-80258333D01*
X161220000Y-80163095D01*
X161267619Y-80115476D01*
X161362857Y-80067857D01*
X161505714Y-80067857D01*
X161600952Y-80115476D01*
X161648571Y-80163095D01*
X161696190Y-80258333D01*
X161696190Y-80639285D01*
X162172380Y-79115476D02*
X162172380Y-79686904D01*
X162172380Y-79401190D02*
X161172380Y-79401190D01*
X161315238Y-79496428D01*
X161410476Y-79591666D01*
X161458095Y-79686904D01*
X161505714Y-78258333D02*
X162172380Y-78258333D01*
X161124761Y-78496428D02*
X161839047Y-78734523D01*
X161839047Y-78115476D01*
%TO.C,R13*%
X158172380Y-80067857D02*
X157696190Y-80401190D01*
X158172380Y-80639285D02*
X157172380Y-80639285D01*
X157172380Y-80258333D01*
X157220000Y-80163095D01*
X157267619Y-80115476D01*
X157362857Y-80067857D01*
X157505714Y-80067857D01*
X157600952Y-80115476D01*
X157648571Y-80163095D01*
X157696190Y-80258333D01*
X157696190Y-80639285D01*
X158172380Y-79115476D02*
X158172380Y-79686904D01*
X158172380Y-79401190D02*
X157172380Y-79401190D01*
X157315238Y-79496428D01*
X157410476Y-79591666D01*
X157458095Y-79686904D01*
X157172380Y-78782142D02*
X157172380Y-78163095D01*
X157553333Y-78496428D01*
X157553333Y-78353571D01*
X157600952Y-78258333D01*
X157648571Y-78210714D01*
X157743809Y-78163095D01*
X157981904Y-78163095D01*
X158077142Y-78210714D01*
X158124761Y-78258333D01*
X158172380Y-78353571D01*
X158172380Y-78639285D01*
X158124761Y-78734523D01*
X158077142Y-78782142D01*
%TO.C,R12*%
X154172380Y-80067857D02*
X153696190Y-80401190D01*
X154172380Y-80639285D02*
X153172380Y-80639285D01*
X153172380Y-80258333D01*
X153220000Y-80163095D01*
X153267619Y-80115476D01*
X153362857Y-80067857D01*
X153505714Y-80067857D01*
X153600952Y-80115476D01*
X153648571Y-80163095D01*
X153696190Y-80258333D01*
X153696190Y-80639285D01*
X154172380Y-79115476D02*
X154172380Y-79686904D01*
X154172380Y-79401190D02*
X153172380Y-79401190D01*
X153315238Y-79496428D01*
X153410476Y-79591666D01*
X153458095Y-79686904D01*
X153267619Y-78734523D02*
X153220000Y-78686904D01*
X153172380Y-78591666D01*
X153172380Y-78353571D01*
X153220000Y-78258333D01*
X153267619Y-78210714D01*
X153362857Y-78163095D01*
X153458095Y-78163095D01*
X153600952Y-78210714D01*
X154172380Y-78782142D01*
X154172380Y-78163095D01*
%TO.C,R11*%
X150062380Y-80067857D02*
X149586190Y-80401190D01*
X150062380Y-80639285D02*
X149062380Y-80639285D01*
X149062380Y-80258333D01*
X149110000Y-80163095D01*
X149157619Y-80115476D01*
X149252857Y-80067857D01*
X149395714Y-80067857D01*
X149490952Y-80115476D01*
X149538571Y-80163095D01*
X149586190Y-80258333D01*
X149586190Y-80639285D01*
X150062380Y-79115476D02*
X150062380Y-79686904D01*
X150062380Y-79401190D02*
X149062380Y-79401190D01*
X149205238Y-79496428D01*
X149300476Y-79591666D01*
X149348095Y-79686904D01*
X150062380Y-78163095D02*
X150062380Y-78734523D01*
X150062380Y-78448809D02*
X149062380Y-78448809D01*
X149205238Y-78544047D01*
X149300476Y-78639285D01*
X149348095Y-78734523D01*
%TO.C,R10*%
X146172380Y-80067857D02*
X145696190Y-80401190D01*
X146172380Y-80639285D02*
X145172380Y-80639285D01*
X145172380Y-80258333D01*
X145220000Y-80163095D01*
X145267619Y-80115476D01*
X145362857Y-80067857D01*
X145505714Y-80067857D01*
X145600952Y-80115476D01*
X145648571Y-80163095D01*
X145696190Y-80258333D01*
X145696190Y-80639285D01*
X146172380Y-79115476D02*
X146172380Y-79686904D01*
X146172380Y-79401190D02*
X145172380Y-79401190D01*
X145315238Y-79496428D01*
X145410476Y-79591666D01*
X145458095Y-79686904D01*
X145172380Y-78496428D02*
X145172380Y-78401190D01*
X145220000Y-78305952D01*
X145267619Y-78258333D01*
X145362857Y-78210714D01*
X145553333Y-78163095D01*
X145791428Y-78163095D01*
X145981904Y-78210714D01*
X146077142Y-78258333D01*
X146124761Y-78305952D01*
X146172380Y-78401190D01*
X146172380Y-78496428D01*
X146124761Y-78591666D01*
X146077142Y-78639285D01*
X145981904Y-78686904D01*
X145791428Y-78734523D01*
X145553333Y-78734523D01*
X145362857Y-78686904D01*
X145267619Y-78639285D01*
X145220000Y-78591666D01*
X145172380Y-78496428D01*
%TO.C,R9*%
X142172380Y-79591666D02*
X141696190Y-79925000D01*
X142172380Y-80163095D02*
X141172380Y-80163095D01*
X141172380Y-79782142D01*
X141220000Y-79686904D01*
X141267619Y-79639285D01*
X141362857Y-79591666D01*
X141505714Y-79591666D01*
X141600952Y-79639285D01*
X141648571Y-79686904D01*
X141696190Y-79782142D01*
X141696190Y-80163095D01*
X142172380Y-79115476D02*
X142172380Y-78925000D01*
X142124761Y-78829761D01*
X142077142Y-78782142D01*
X141934285Y-78686904D01*
X141743809Y-78639285D01*
X141362857Y-78639285D01*
X141267619Y-78686904D01*
X141220000Y-78734523D01*
X141172380Y-78829761D01*
X141172380Y-79020238D01*
X141220000Y-79115476D01*
X141267619Y-79163095D01*
X141362857Y-79210714D01*
X141600952Y-79210714D01*
X141696190Y-79163095D01*
X141743809Y-79115476D01*
X141791428Y-79020238D01*
X141791428Y-78829761D01*
X141743809Y-78734523D01*
X141696190Y-78686904D01*
X141600952Y-78639285D01*
%TO.C,R8*%
X138172380Y-79591666D02*
X137696190Y-79925000D01*
X138172380Y-80163095D02*
X137172380Y-80163095D01*
X137172380Y-79782142D01*
X137220000Y-79686904D01*
X137267619Y-79639285D01*
X137362857Y-79591666D01*
X137505714Y-79591666D01*
X137600952Y-79639285D01*
X137648571Y-79686904D01*
X137696190Y-79782142D01*
X137696190Y-80163095D01*
X137600952Y-79020238D02*
X137553333Y-79115476D01*
X137505714Y-79163095D01*
X137410476Y-79210714D01*
X137362857Y-79210714D01*
X137267619Y-79163095D01*
X137220000Y-79115476D01*
X137172380Y-79020238D01*
X137172380Y-78829761D01*
X137220000Y-78734523D01*
X137267619Y-78686904D01*
X137362857Y-78639285D01*
X137410476Y-78639285D01*
X137505714Y-78686904D01*
X137553333Y-78734523D01*
X137600952Y-78829761D01*
X137600952Y-79020238D01*
X137648571Y-79115476D01*
X137696190Y-79163095D01*
X137791428Y-79210714D01*
X137981904Y-79210714D01*
X138077142Y-79163095D01*
X138124761Y-79115476D01*
X138172380Y-79020238D01*
X138172380Y-78829761D01*
X138124761Y-78734523D01*
X138077142Y-78686904D01*
X137981904Y-78639285D01*
X137791428Y-78639285D01*
X137696190Y-78686904D01*
X137648571Y-78734523D01*
X137600952Y-78829761D01*
%TO.C,R7*%
X134172380Y-79591666D02*
X133696190Y-79925000D01*
X134172380Y-80163095D02*
X133172380Y-80163095D01*
X133172380Y-79782142D01*
X133220000Y-79686904D01*
X133267619Y-79639285D01*
X133362857Y-79591666D01*
X133505714Y-79591666D01*
X133600952Y-79639285D01*
X133648571Y-79686904D01*
X133696190Y-79782142D01*
X133696190Y-80163095D01*
X133172380Y-79258333D02*
X133172380Y-78591666D01*
X134172380Y-79020238D01*
%TO.C,R6*%
X130172380Y-79591666D02*
X129696190Y-79925000D01*
X130172380Y-80163095D02*
X129172380Y-80163095D01*
X129172380Y-79782142D01*
X129220000Y-79686904D01*
X129267619Y-79639285D01*
X129362857Y-79591666D01*
X129505714Y-79591666D01*
X129600952Y-79639285D01*
X129648571Y-79686904D01*
X129696190Y-79782142D01*
X129696190Y-80163095D01*
X129172380Y-78734523D02*
X129172380Y-78925000D01*
X129220000Y-79020238D01*
X129267619Y-79067857D01*
X129410476Y-79163095D01*
X129600952Y-79210714D01*
X129981904Y-79210714D01*
X130077142Y-79163095D01*
X130124761Y-79115476D01*
X130172380Y-79020238D01*
X130172380Y-78829761D01*
X130124761Y-78734523D01*
X130077142Y-78686904D01*
X129981904Y-78639285D01*
X129743809Y-78639285D01*
X129648571Y-78686904D01*
X129600952Y-78734523D01*
X129553333Y-78829761D01*
X129553333Y-79020238D01*
X129600952Y-79115476D01*
X129648571Y-79163095D01*
X129743809Y-79210714D01*
%TO.C,R5*%
X126172380Y-79591666D02*
X125696190Y-79925000D01*
X126172380Y-80163095D02*
X125172380Y-80163095D01*
X125172380Y-79782142D01*
X125220000Y-79686904D01*
X125267619Y-79639285D01*
X125362857Y-79591666D01*
X125505714Y-79591666D01*
X125600952Y-79639285D01*
X125648571Y-79686904D01*
X125696190Y-79782142D01*
X125696190Y-80163095D01*
X125172380Y-78686904D02*
X125172380Y-79163095D01*
X125648571Y-79210714D01*
X125600952Y-79163095D01*
X125553333Y-79067857D01*
X125553333Y-78829761D01*
X125600952Y-78734523D01*
X125648571Y-78686904D01*
X125743809Y-78639285D01*
X125981904Y-78639285D01*
X126077142Y-78686904D01*
X126124761Y-78734523D01*
X126172380Y-78829761D01*
X126172380Y-79067857D01*
X126124761Y-79163095D01*
X126077142Y-79210714D01*
%TO.C,R4*%
X122172380Y-79591666D02*
X121696190Y-79925000D01*
X122172380Y-80163095D02*
X121172380Y-80163095D01*
X121172380Y-79782142D01*
X121220000Y-79686904D01*
X121267619Y-79639285D01*
X121362857Y-79591666D01*
X121505714Y-79591666D01*
X121600952Y-79639285D01*
X121648571Y-79686904D01*
X121696190Y-79782142D01*
X121696190Y-80163095D01*
X121505714Y-78734523D02*
X122172380Y-78734523D01*
X121124761Y-78972619D02*
X121839047Y-79210714D01*
X121839047Y-78591666D01*
%TO.C,R3*%
X118172380Y-79591666D02*
X117696190Y-79925000D01*
X118172380Y-80163095D02*
X117172380Y-80163095D01*
X117172380Y-79782142D01*
X117220000Y-79686904D01*
X117267619Y-79639285D01*
X117362857Y-79591666D01*
X117505714Y-79591666D01*
X117600952Y-79639285D01*
X117648571Y-79686904D01*
X117696190Y-79782142D01*
X117696190Y-80163095D01*
X117172380Y-79258333D02*
X117172380Y-78639285D01*
X117553333Y-78972619D01*
X117553333Y-78829761D01*
X117600952Y-78734523D01*
X117648571Y-78686904D01*
X117743809Y-78639285D01*
X117981904Y-78639285D01*
X118077142Y-78686904D01*
X118124761Y-78734523D01*
X118172380Y-78829761D01*
X118172380Y-79115476D01*
X118124761Y-79210714D01*
X118077142Y-79258333D01*
%TO.C,R2*%
X114172380Y-79591666D02*
X113696190Y-79925000D01*
X114172380Y-80163095D02*
X113172380Y-80163095D01*
X113172380Y-79782142D01*
X113220000Y-79686904D01*
X113267619Y-79639285D01*
X113362857Y-79591666D01*
X113505714Y-79591666D01*
X113600952Y-79639285D01*
X113648571Y-79686904D01*
X113696190Y-79782142D01*
X113696190Y-80163095D01*
X113267619Y-79210714D02*
X113220000Y-79163095D01*
X113172380Y-79067857D01*
X113172380Y-78829761D01*
X113220000Y-78734523D01*
X113267619Y-78686904D01*
X113362857Y-78639285D01*
X113458095Y-78639285D01*
X113600952Y-78686904D01*
X114172380Y-79258333D01*
X114172380Y-78639285D01*
%TO.C,R1*%
X110172380Y-79591666D02*
X109696190Y-79925000D01*
X110172380Y-80163095D02*
X109172380Y-80163095D01*
X109172380Y-79782142D01*
X109220000Y-79686904D01*
X109267619Y-79639285D01*
X109362857Y-79591666D01*
X109505714Y-79591666D01*
X109600952Y-79639285D01*
X109648571Y-79686904D01*
X109696190Y-79782142D01*
X109696190Y-80163095D01*
X110172380Y-78639285D02*
X110172380Y-79210714D01*
X110172380Y-78925000D02*
X109172380Y-78925000D01*
X109315238Y-79020238D01*
X109410476Y-79115476D01*
X109458095Y-79210714D01*
%TO.C,J1*%
X92666666Y-76597380D02*
X92666666Y-77311666D01*
X92619047Y-77454523D01*
X92523809Y-77549761D01*
X92380952Y-77597380D01*
X92285714Y-77597380D01*
X93666666Y-77597380D02*
X93095238Y-77597380D01*
X93380952Y-77597380D02*
X93380952Y-76597380D01*
X93285714Y-76740238D01*
X93190476Y-76835476D01*
X93095238Y-76883095D01*
D11*
%TO.C,TP21*%
X91890000Y-89260000D02*
X91890000Y-89195000D01*
X93563471Y-89260000D02*
X94110000Y-89260000D01*
X91890000Y-88500000D02*
X91890000Y-87740000D01*
X91890000Y-89260000D02*
X92436529Y-89260000D01*
X94110000Y-89260000D02*
X94110000Y-89195000D01*
X91890000Y-89260000D02*
X94110000Y-89260000D01*
X91890000Y-87740000D02*
X93000000Y-87740000D01*
%TO.C,R20*%
X187672500Y-79662258D02*
X187672500Y-79187742D01*
X186627500Y-79662258D02*
X186627500Y-79187742D01*
%TO.C,R19*%
X183672500Y-79662258D02*
X183672500Y-79187742D01*
X182627500Y-79662258D02*
X182627500Y-79187742D01*
%TO.C,R18*%
X179672500Y-79662258D02*
X179672500Y-79187742D01*
X178627500Y-79662258D02*
X178627500Y-79187742D01*
%TO.C,R17*%
X175672500Y-79662258D02*
X175672500Y-79187742D01*
X174627500Y-79662258D02*
X174627500Y-79187742D01*
%TO.C,R16*%
X171672500Y-79662258D02*
X171672500Y-79187742D01*
X170627500Y-79662258D02*
X170627500Y-79187742D01*
%TO.C,R15*%
X167672500Y-79662258D02*
X167672500Y-79187742D01*
X166627500Y-79662258D02*
X166627500Y-79187742D01*
%TO.C,R14*%
X163672500Y-79662258D02*
X163672500Y-79187742D01*
X162627500Y-79662258D02*
X162627500Y-79187742D01*
%TO.C,R13*%
X159672500Y-79662258D02*
X159672500Y-79187742D01*
X158627500Y-79662258D02*
X158627500Y-79187742D01*
%TO.C,R12*%
X155672500Y-79662258D02*
X155672500Y-79187742D01*
X154627500Y-79662258D02*
X154627500Y-79187742D01*
%TO.C,R11*%
X151562500Y-79662258D02*
X151562500Y-79187742D01*
X150517500Y-79662258D02*
X150517500Y-79187742D01*
%TO.C,R10*%
X147672500Y-79662258D02*
X147672500Y-79187742D01*
X146627500Y-79662258D02*
X146627500Y-79187742D01*
%TO.C,R9*%
X143672500Y-79662258D02*
X143672500Y-79187742D01*
X142627500Y-79662258D02*
X142627500Y-79187742D01*
%TO.C,R8*%
X139672500Y-79662258D02*
X139672500Y-79187742D01*
X138627500Y-79662258D02*
X138627500Y-79187742D01*
%TO.C,R7*%
X135672500Y-79662258D02*
X135672500Y-79187742D01*
X134627500Y-79662258D02*
X134627500Y-79187742D01*
%TO.C,R6*%
X131672500Y-79662258D02*
X131672500Y-79187742D01*
X130627500Y-79662258D02*
X130627500Y-79187742D01*
%TO.C,R5*%
X127672500Y-79662258D02*
X127672500Y-79187742D01*
X126627500Y-79662258D02*
X126627500Y-79187742D01*
%TO.C,R4*%
X123672500Y-79662258D02*
X123672500Y-79187742D01*
X122627500Y-79662258D02*
X122627500Y-79187742D01*
%TO.C,R3*%
X119672500Y-79662258D02*
X119672500Y-79187742D01*
X118627500Y-79662258D02*
X118627500Y-79187742D01*
%TO.C,R2*%
X115672500Y-79662258D02*
X115672500Y-79187742D01*
X114627500Y-79662258D02*
X114627500Y-79187742D01*
%TO.C,R1*%
X111672500Y-79662258D02*
X111672500Y-79187742D01*
X110627500Y-79662258D02*
X110627500Y-79187742D01*
%TO.C,J1*%
X91670000Y-79475000D02*
X91670000Y-78145000D01*
X91670000Y-83345000D02*
X94330000Y-83345000D01*
X91670000Y-80745000D02*
X91670000Y-83345000D01*
X91670000Y-80745000D02*
X94330000Y-80745000D01*
X91670000Y-78145000D02*
X93000000Y-78145000D01*
X94330000Y-80745000D02*
X94330000Y-83345000D01*
%TD*%
M02*
